<?xml version="1.0" encoding="UTF-8"?> <svg xmlns="http://www.w3.org/2000/svg" width="362" height="362" viewBox="0 0 362 362" fill="none"> <path d="M362 181C362 204.769 357.318 228.306 348.222 250.266C339.126 272.226 325.794 292.179 308.986 308.986L269.611 269.611C281.247 257.974 290.478 244.16 296.775 228.956C303.073 213.752 306.314 197.457 306.314 181H362Z" fill="#B1B1B1"></path> <path d="M0 181C0 204.769 4.6817 228.306 13.7778 250.266C22.8739 272.226 36.2063 292.179 53.0137 308.986L92.3893 269.611C80.7528 257.974 71.5222 244.16 65.2245 228.956C58.9269 213.752 55.6855 197.457 55.6855 181H0Z" fill="#F1C0C0"></path> <path d="M53.0137 53.0137C69.8211 36.2063 89.7744 22.8739 111.734 13.7778C133.694 4.6817 157.231 0 181 0L181 55.6855C164.543 55.6855 148.248 58.9269 133.044 65.2245C117.84 71.5222 104.026 80.7528 92.3893 92.3893L53.0137 53.0137Z" fill="#D4D4D4"></path> <path d="M0 181C0 157.231 4.6817 133.694 13.7778 111.734C22.8739 89.7744 36.2063 69.8211 53.0137 53.0137L92.3893 92.3893C80.7528 104.026 71.5222 117.84 65.2245 133.044C58.9269 148.248 55.6855 164.543 55.6855 181H0Z" fill="#ECECEC"></path> <path d="M362 181C362 157.231 357.318 133.694 348.222 111.734C339.126 89.7744 325.794 69.8211 308.986 53.0137L269.611 92.3893C281.247 104.026 290.478 117.84 296.775 133.044C303.073 148.248 306.314 164.543 306.314 181H362Z" fill="#C2C2C2"></path> <path d="M308.986 53.0137C292.179 36.2063 272.226 22.8739 250.266 13.7778C228.306 4.6817 204.769 0 181 0L181 55.6855C197.457 55.6855 213.752 58.9269 228.956 65.2245C244.16 71.5222 257.974 80.7528 269.611 92.3893L308.986 53.0137Z" fill="#C9C9C9"></path> <path d="M47.0865 226.129L190.801 210.607L170.406 151L47.0865 226.129Z" fill="black"></path> <ellipse cx="180.5" cy="181" rx="31.5" ry="31" fill="black"></ellipse> <circle cx="180.5" cy="180.5" r="18.5" fill="white"></circle> </svg> 